<mxfile host="app.diagrams.net" modified="2022-03-24T04:37:55.793Z" agent="5.0 (Windows NT 10.0; Win64; x64) AppleWebKit/537.36 (KHTML, like Gecko) Chrome/99.0.4844.74 Safari/537.36" etag="dYfM3LcJ7kFSuYN8p6cV" version="17.1.3" type="github">
  <diagram id="R2lEEEUBdFMjLlhIrx00" name="Page-1">
    <mxGraphModel dx="1422" dy="1100" grid="1" gridSize="10" guides="1" tooltips="1" connect="1" arrows="1" fold="1" page="1" pageScale="1" pageWidth="300" pageHeight="300" math="0" shadow="0" extFonts="Permanent Marker^https://fonts.googleapis.com/css?family=Permanent+Marker">
      <root>
        <mxCell id="0" />
        <mxCell id="1" parent="0" />
        <mxCell id="C-vyLk0tnHw3VtMMgP7b-2" value="Personal" style="shape=table;startSize=30;container=1;collapsible=1;childLayout=tableLayout;fixedRows=1;rowLines=0;fontStyle=1;align=center;resizeLast=1;fontFamily=Cabin;fontSource=https%3A%2F%2Ffonts.googleapis.com%2Fcss%3Ffamily%3DCabin;fillColor=#FF5B5B;fontSize=19;fontColor=#434343;rounded=1;shadow=1;sketch=0;strokeWidth=1;perimeterSpacing=0;strokeColor=#FF5B5B;swimlaneFillColor=default;gradientColor=none;labelBackgroundColor=none;" parent="1" vertex="1">
          <mxGeometry x="320" y="-290" width="260" height="220" as="geometry" />
        </mxCell>
        <mxCell id="C-vyLk0tnHw3VtMMgP7b-3" value="" style="shape=partialRectangle;collapsible=0;dropTarget=0;pointerEvents=0;fillColor=none;points=[[0,0.5],[1,0.5]];portConstraint=eastwest;top=0;left=0;right=0;bottom=1;" parent="C-vyLk0tnHw3VtMMgP7b-2" vertex="1">
          <mxGeometry y="30" width="260" height="30" as="geometry" />
        </mxCell>
        <mxCell id="C-vyLk0tnHw3VtMMgP7b-4" value="" style="shape=partialRectangle;overflow=hidden;connectable=0;fillColor=#F3F3F3;top=0;left=0;bottom=0;right=0;fontStyle=1;" parent="C-vyLk0tnHw3VtMMgP7b-3" vertex="1">
          <mxGeometry width="30" height="30" as="geometry">
            <mxRectangle width="30" height="30" as="alternateBounds" />
          </mxGeometry>
        </mxCell>
        <mxCell id="C-vyLk0tnHw3VtMMgP7b-5" value="ID" style="shape=partialRectangle;overflow=hidden;connectable=0;fillColor=#f3f3f3;top=0;left=0;bottom=0;right=0;align=left;spacingLeft=6;fontStyle=0;" parent="C-vyLk0tnHw3VtMMgP7b-3" vertex="1">
          <mxGeometry x="30" width="130" height="30" as="geometry">
            <mxRectangle width="130" height="30" as="alternateBounds" />
          </mxGeometry>
        </mxCell>
        <mxCell id="FiXy-7Y5C_PRkbZDDKWc-91" value="INT" style="shape=partialRectangle;overflow=hidden;connectable=0;fillColor=#f3f3f3;top=0;left=0;bottom=0;right=0;align=right;spacingLeft=6;fontStyle=0;" vertex="1" parent="C-vyLk0tnHw3VtMMgP7b-3">
          <mxGeometry x="160" width="100" height="30" as="geometry">
            <mxRectangle width="100" height="30" as="alternateBounds" />
          </mxGeometry>
        </mxCell>
        <mxCell id="C-vyLk0tnHw3VtMMgP7b-6" value="" style="shape=partialRectangle;collapsible=0;dropTarget=0;pointerEvents=0;fillColor=none;points=[[0,0.5],[1,0.5]];portConstraint=eastwest;top=0;left=0;right=0;bottom=0;" parent="C-vyLk0tnHw3VtMMgP7b-2" vertex="1">
          <mxGeometry y="60" width="260" height="30" as="geometry" />
        </mxCell>
        <mxCell id="C-vyLk0tnHw3VtMMgP7b-7" value="" style="shape=partialRectangle;overflow=hidden;connectable=0;fillColor=#F3F3F3;top=0;left=0;bottom=0;right=0;" parent="C-vyLk0tnHw3VtMMgP7b-6" vertex="1">
          <mxGeometry width="30" height="30" as="geometry">
            <mxRectangle width="30" height="30" as="alternateBounds" />
          </mxGeometry>
        </mxCell>
        <mxCell id="C-vyLk0tnHw3VtMMgP7b-8" value="Index" style="shape=partialRectangle;overflow=hidden;connectable=0;fillColor=#F3F3F3;top=0;left=0;bottom=0;right=0;align=left;spacingLeft=6;" parent="C-vyLk0tnHw3VtMMgP7b-6" vertex="1">
          <mxGeometry x="30" width="130" height="30" as="geometry">
            <mxRectangle width="130" height="30" as="alternateBounds" />
          </mxGeometry>
        </mxCell>
        <mxCell id="FiXy-7Y5C_PRkbZDDKWc-92" value="INT" style="shape=partialRectangle;overflow=hidden;connectable=0;fillColor=#F3F3F3;top=0;left=0;bottom=0;right=0;align=right;spacingLeft=6;" vertex="1" parent="C-vyLk0tnHw3VtMMgP7b-6">
          <mxGeometry x="160" width="100" height="30" as="geometry">
            <mxRectangle width="100" height="30" as="alternateBounds" />
          </mxGeometry>
        </mxCell>
        <mxCell id="C-vyLk0tnHw3VtMMgP7b-9" value="" style="shape=partialRectangle;collapsible=0;dropTarget=0;pointerEvents=0;fillColor=none;points=[[0,0.5],[1,0.5]];portConstraint=eastwest;top=0;left=0;right=0;bottom=0;" parent="C-vyLk0tnHw3VtMMgP7b-2" vertex="1">
          <mxGeometry y="90" width="260" height="30" as="geometry" />
        </mxCell>
        <mxCell id="C-vyLk0tnHw3VtMMgP7b-10" value="" style="shape=partialRectangle;overflow=hidden;connectable=0;fillColor=#F3F3F3;top=0;left=0;bottom=0;right=0;" parent="C-vyLk0tnHw3VtMMgP7b-9" vertex="1">
          <mxGeometry width="30" height="30" as="geometry">
            <mxRectangle width="30" height="30" as="alternateBounds" />
          </mxGeometry>
        </mxCell>
        <mxCell id="C-vyLk0tnHw3VtMMgP7b-11" value="Ever_Married" style="shape=partialRectangle;overflow=hidden;connectable=0;fillColor=#F3F3F3;top=0;left=0;bottom=0;right=0;align=left;spacingLeft=6;" parent="C-vyLk0tnHw3VtMMgP7b-9" vertex="1">
          <mxGeometry x="30" width="130" height="30" as="geometry">
            <mxRectangle width="130" height="30" as="alternateBounds" />
          </mxGeometry>
        </mxCell>
        <mxCell id="FiXy-7Y5C_PRkbZDDKWc-93" value="VARCHAR(3)" style="shape=partialRectangle;overflow=hidden;connectable=0;fillColor=#F3F3F3;top=0;left=0;bottom=0;right=0;align=right;spacingLeft=6;" vertex="1" parent="C-vyLk0tnHw3VtMMgP7b-9">
          <mxGeometry x="160" width="100" height="30" as="geometry">
            <mxRectangle width="100" height="30" as="alternateBounds" />
          </mxGeometry>
        </mxCell>
        <mxCell id="FiXy-7Y5C_PRkbZDDKWc-7" style="shape=partialRectangle;collapsible=0;dropTarget=0;pointerEvents=0;fillColor=none;points=[[0,0.5],[1,0.5]];portConstraint=eastwest;top=0;left=0;right=0;bottom=0;" vertex="1" parent="C-vyLk0tnHw3VtMMgP7b-2">
          <mxGeometry y="120" width="260" height="30" as="geometry" />
        </mxCell>
        <mxCell id="FiXy-7Y5C_PRkbZDDKWc-8" style="shape=partialRectangle;overflow=hidden;connectable=0;fillColor=#F3F3F3;top=0;left=0;bottom=0;right=0;" vertex="1" parent="FiXy-7Y5C_PRkbZDDKWc-7">
          <mxGeometry width="30" height="30" as="geometry">
            <mxRectangle width="30" height="30" as="alternateBounds" />
          </mxGeometry>
        </mxCell>
        <mxCell id="FiXy-7Y5C_PRkbZDDKWc-9" value="Work_Type" style="shape=partialRectangle;overflow=hidden;connectable=0;fillColor=#F3F3F3;top=0;left=0;bottom=0;right=0;align=left;spacingLeft=6;" vertex="1" parent="FiXy-7Y5C_PRkbZDDKWc-7">
          <mxGeometry x="30" width="130" height="30" as="geometry">
            <mxRectangle width="130" height="30" as="alternateBounds" />
          </mxGeometry>
        </mxCell>
        <mxCell id="FiXy-7Y5C_PRkbZDDKWc-94" value="VARCHAR(40)" style="shape=partialRectangle;overflow=hidden;connectable=0;fillColor=#F3F3F3;top=0;left=0;bottom=0;right=0;align=right;spacingLeft=6;" vertex="1" parent="FiXy-7Y5C_PRkbZDDKWc-7">
          <mxGeometry x="160" width="100" height="30" as="geometry">
            <mxRectangle width="100" height="30" as="alternateBounds" />
          </mxGeometry>
        </mxCell>
        <mxCell id="FiXy-7Y5C_PRkbZDDKWc-4" style="shape=partialRectangle;collapsible=0;dropTarget=0;pointerEvents=0;fillColor=none;points=[[0,0.5],[1,0.5]];portConstraint=eastwest;top=0;left=0;right=0;bottom=0;" vertex="1" parent="C-vyLk0tnHw3VtMMgP7b-2">
          <mxGeometry y="150" width="260" height="30" as="geometry" />
        </mxCell>
        <mxCell id="FiXy-7Y5C_PRkbZDDKWc-5" style="shape=partialRectangle;overflow=hidden;connectable=0;fillColor=#F3F3F3;top=0;left=0;bottom=0;right=0;" vertex="1" parent="FiXy-7Y5C_PRkbZDDKWc-4">
          <mxGeometry width="30" height="30" as="geometry">
            <mxRectangle width="30" height="30" as="alternateBounds" />
          </mxGeometry>
        </mxCell>
        <mxCell id="FiXy-7Y5C_PRkbZDDKWc-6" value="Residence_Type" style="shape=partialRectangle;overflow=hidden;connectable=0;fillColor=#F3F3F3;top=0;left=0;bottom=0;right=0;align=left;spacingLeft=6;" vertex="1" parent="FiXy-7Y5C_PRkbZDDKWc-4">
          <mxGeometry x="30" width="130" height="30" as="geometry">
            <mxRectangle width="130" height="30" as="alternateBounds" />
          </mxGeometry>
        </mxCell>
        <mxCell id="FiXy-7Y5C_PRkbZDDKWc-95" value="VARCHAR(40)" style="shape=partialRectangle;overflow=hidden;connectable=0;fillColor=#F3F3F3;top=0;left=0;bottom=0;right=0;align=right;spacingLeft=6;" vertex="1" parent="FiXy-7Y5C_PRkbZDDKWc-4">
          <mxGeometry x="160" width="100" height="30" as="geometry">
            <mxRectangle width="100" height="30" as="alternateBounds" />
          </mxGeometry>
        </mxCell>
        <mxCell id="FiXy-7Y5C_PRkbZDDKWc-1" style="shape=partialRectangle;collapsible=0;dropTarget=0;pointerEvents=0;fillColor=none;points=[[0,0.5],[1,0.5]];portConstraint=eastwest;top=0;left=0;right=0;bottom=0;" vertex="1" parent="C-vyLk0tnHw3VtMMgP7b-2">
          <mxGeometry y="180" width="260" height="30" as="geometry" />
        </mxCell>
        <mxCell id="FiXy-7Y5C_PRkbZDDKWc-2" style="shape=partialRectangle;overflow=hidden;connectable=0;fillColor=#F3F3F3;top=0;left=0;bottom=0;right=0;" vertex="1" parent="FiXy-7Y5C_PRkbZDDKWc-1">
          <mxGeometry width="30" height="30" as="geometry">
            <mxRectangle width="30" height="30" as="alternateBounds" />
          </mxGeometry>
        </mxCell>
        <mxCell id="FiXy-7Y5C_PRkbZDDKWc-3" value="Stroke" style="shape=partialRectangle;overflow=hidden;connectable=0;fillColor=#F3F3F3;top=0;left=0;bottom=0;right=0;align=left;spacingLeft=6;" vertex="1" parent="FiXy-7Y5C_PRkbZDDKWc-1">
          <mxGeometry x="30" width="130" height="30" as="geometry">
            <mxRectangle width="130" height="30" as="alternateBounds" />
          </mxGeometry>
        </mxCell>
        <mxCell id="FiXy-7Y5C_PRkbZDDKWc-96" value="INT" style="shape=partialRectangle;overflow=hidden;connectable=0;fillColor=#F3F3F3;top=0;left=0;bottom=0;right=0;align=right;spacingLeft=6;" vertex="1" parent="FiXy-7Y5C_PRkbZDDKWc-1">
          <mxGeometry x="160" width="100" height="30" as="geometry">
            <mxRectangle width="100" height="30" as="alternateBounds" />
          </mxGeometry>
        </mxCell>
        <mxCell id="C-vyLk0tnHw3VtMMgP7b-13" value="Medical_No_Null_BMI" style="shape=table;startSize=30;container=1;collapsible=1;childLayout=tableLayout;fixedRows=1;rowLines=0;fontStyle=1;align=center;resizeLast=1;fontFamily=Cabin;fontSource=https%3A%2F%2Ffonts.googleapis.com%2Fcss%3Ffamily%3DCabin;fillColor=#FF5B5B;fontSize=19;fontColor=#434343;rounded=1;shadow=1;sketch=0;strokeWidth=1;perimeterSpacing=0;strokeColor=#FF5B5B;swimlaneFillColor=default;gradientColor=none;labelBackgroundColor=none;" parent="1" vertex="1">
          <mxGeometry x="600" y="-50" width="260" height="340" as="geometry" />
        </mxCell>
        <mxCell id="C-vyLk0tnHw3VtMMgP7b-14" value="" style="shape=partialRectangle;collapsible=0;dropTarget=0;pointerEvents=0;fillColor=none;points=[[0,0.5],[1,0.5]];portConstraint=eastwest;top=0;left=0;right=0;bottom=1;" parent="C-vyLk0tnHw3VtMMgP7b-13" vertex="1">
          <mxGeometry y="30" width="260" height="30" as="geometry" />
        </mxCell>
        <mxCell id="C-vyLk0tnHw3VtMMgP7b-15" value="PK" style="shape=partialRectangle;overflow=hidden;connectable=0;fillColor=#F3F3F3;top=0;left=0;bottom=0;right=0;fontStyle=1;" parent="C-vyLk0tnHw3VtMMgP7b-14" vertex="1">
          <mxGeometry width="30" height="30" as="geometry">
            <mxRectangle width="30" height="30" as="alternateBounds" />
          </mxGeometry>
        </mxCell>
        <mxCell id="C-vyLk0tnHw3VtMMgP7b-16" value="ID" style="shape=partialRectangle;overflow=hidden;connectable=0;fillColor=#F3F3F3;top=0;left=0;bottom=0;right=0;align=left;spacingLeft=6;fontStyle=0;labelBackgroundColor=#F3F3F3;" parent="C-vyLk0tnHw3VtMMgP7b-14" vertex="1">
          <mxGeometry x="30" width="130" height="30" as="geometry">
            <mxRectangle width="130" height="30" as="alternateBounds" />
          </mxGeometry>
        </mxCell>
        <mxCell id="FiXy-7Y5C_PRkbZDDKWc-81" value="INT" style="shape=partialRectangle;overflow=hidden;connectable=0;fillColor=#F3F3F3;top=0;left=0;bottom=0;right=0;align=right;spacingLeft=6;fontStyle=0;" vertex="1" parent="C-vyLk0tnHw3VtMMgP7b-14">
          <mxGeometry x="160" width="100" height="30" as="geometry">
            <mxRectangle width="100" height="30" as="alternateBounds" />
          </mxGeometry>
        </mxCell>
        <mxCell id="C-vyLk0tnHw3VtMMgP7b-17" value="" style="shape=partialRectangle;collapsible=0;dropTarget=0;pointerEvents=0;fillColor=none;points=[[0,0.5],[1,0.5]];portConstraint=eastwest;top=0;left=0;right=0;bottom=0;" parent="C-vyLk0tnHw3VtMMgP7b-13" vertex="1">
          <mxGeometry y="60" width="260" height="30" as="geometry" />
        </mxCell>
        <mxCell id="C-vyLk0tnHw3VtMMgP7b-18" value="" style="shape=partialRectangle;overflow=hidden;connectable=0;fillColor=#F3F3F3;top=0;left=0;bottom=0;right=0;" parent="C-vyLk0tnHw3VtMMgP7b-17" vertex="1">
          <mxGeometry width="30" height="30" as="geometry">
            <mxRectangle width="30" height="30" as="alternateBounds" />
          </mxGeometry>
        </mxCell>
        <mxCell id="C-vyLk0tnHw3VtMMgP7b-19" value="Index" style="shape=partialRectangle;overflow=hidden;connectable=0;fillColor=#F3F3F3;top=0;left=0;bottom=0;right=0;align=left;spacingLeft=6;" parent="C-vyLk0tnHw3VtMMgP7b-17" vertex="1">
          <mxGeometry x="30" width="130" height="30" as="geometry">
            <mxRectangle width="130" height="30" as="alternateBounds" />
          </mxGeometry>
        </mxCell>
        <mxCell id="FiXy-7Y5C_PRkbZDDKWc-82" value="INT" style="shape=partialRectangle;overflow=hidden;connectable=0;fillColor=#F3F3F3;top=0;left=0;bottom=0;right=0;align=right;spacingLeft=6;" vertex="1" parent="C-vyLk0tnHw3VtMMgP7b-17">
          <mxGeometry x="160" width="100" height="30" as="geometry">
            <mxRectangle width="100" height="30" as="alternateBounds" />
          </mxGeometry>
        </mxCell>
        <mxCell id="C-vyLk0tnHw3VtMMgP7b-20" value="" style="shape=partialRectangle;collapsible=0;dropTarget=0;pointerEvents=0;fillColor=none;points=[[0,0.5],[1,0.5]];portConstraint=eastwest;top=0;left=0;right=0;bottom=0;" parent="C-vyLk0tnHw3VtMMgP7b-13" vertex="1">
          <mxGeometry y="90" width="260" height="30" as="geometry" />
        </mxCell>
        <mxCell id="C-vyLk0tnHw3VtMMgP7b-21" value="" style="shape=partialRectangle;overflow=hidden;connectable=0;fillColor=#F3F3F3;top=0;left=0;bottom=0;right=0;" parent="C-vyLk0tnHw3VtMMgP7b-20" vertex="1">
          <mxGeometry width="30" height="30" as="geometry">
            <mxRectangle width="30" height="30" as="alternateBounds" />
          </mxGeometry>
        </mxCell>
        <mxCell id="C-vyLk0tnHw3VtMMgP7b-22" value="Gender" style="shape=partialRectangle;overflow=hidden;connectable=0;fillColor=#F3F3F3;top=0;left=0;bottom=0;right=0;align=left;spacingLeft=6;" parent="C-vyLk0tnHw3VtMMgP7b-20" vertex="1">
          <mxGeometry x="30" width="130" height="30" as="geometry">
            <mxRectangle width="130" height="30" as="alternateBounds" />
          </mxGeometry>
        </mxCell>
        <mxCell id="FiXy-7Y5C_PRkbZDDKWc-83" value="VARCHAR(6)" style="shape=partialRectangle;overflow=hidden;connectable=0;fillColor=#F3F3F3;top=0;left=0;bottom=0;right=0;align=right;spacingLeft=6;" vertex="1" parent="C-vyLk0tnHw3VtMMgP7b-20">
          <mxGeometry x="160" width="100" height="30" as="geometry">
            <mxRectangle width="100" height="30" as="alternateBounds" />
          </mxGeometry>
        </mxCell>
        <mxCell id="FiXy-7Y5C_PRkbZDDKWc-34" style="shape=partialRectangle;collapsible=0;dropTarget=0;pointerEvents=0;fillColor=none;points=[[0,0.5],[1,0.5]];portConstraint=eastwest;top=0;left=0;right=0;bottom=0;" vertex="1" parent="C-vyLk0tnHw3VtMMgP7b-13">
          <mxGeometry y="120" width="260" height="30" as="geometry" />
        </mxCell>
        <mxCell id="FiXy-7Y5C_PRkbZDDKWc-35" style="shape=partialRectangle;overflow=hidden;connectable=0;fillColor=#F3F3F3;top=0;left=0;bottom=0;right=0;" vertex="1" parent="FiXy-7Y5C_PRkbZDDKWc-34">
          <mxGeometry width="30" height="30" as="geometry">
            <mxRectangle width="30" height="30" as="alternateBounds" />
          </mxGeometry>
        </mxCell>
        <mxCell id="FiXy-7Y5C_PRkbZDDKWc-36" value="Age" style="shape=partialRectangle;overflow=hidden;connectable=0;fillColor=#F3F3F3;top=0;left=0;bottom=0;right=0;align=left;spacingLeft=6;" vertex="1" parent="FiXy-7Y5C_PRkbZDDKWc-34">
          <mxGeometry x="30" width="130" height="30" as="geometry">
            <mxRectangle width="130" height="30" as="alternateBounds" />
          </mxGeometry>
        </mxCell>
        <mxCell id="FiXy-7Y5C_PRkbZDDKWc-84" value="FLOAT" style="shape=partialRectangle;overflow=hidden;connectable=0;fillColor=#F3F3F3;top=0;left=0;bottom=0;right=0;align=right;spacingLeft=6;" vertex="1" parent="FiXy-7Y5C_PRkbZDDKWc-34">
          <mxGeometry x="160" width="100" height="30" as="geometry">
            <mxRectangle width="100" height="30" as="alternateBounds" />
          </mxGeometry>
        </mxCell>
        <mxCell id="FiXy-7Y5C_PRkbZDDKWc-37" style="shape=partialRectangle;collapsible=0;dropTarget=0;pointerEvents=0;fillColor=none;points=[[0,0.5],[1,0.5]];portConstraint=eastwest;top=0;left=0;right=0;bottom=0;" vertex="1" parent="C-vyLk0tnHw3VtMMgP7b-13">
          <mxGeometry y="150" width="260" height="30" as="geometry" />
        </mxCell>
        <mxCell id="FiXy-7Y5C_PRkbZDDKWc-38" style="shape=partialRectangle;overflow=hidden;connectable=0;fillColor=#F3F3F3;top=0;left=0;bottom=0;right=0;" vertex="1" parent="FiXy-7Y5C_PRkbZDDKWc-37">
          <mxGeometry width="30" height="30" as="geometry">
            <mxRectangle width="30" height="30" as="alternateBounds" />
          </mxGeometry>
        </mxCell>
        <mxCell id="FiXy-7Y5C_PRkbZDDKWc-39" value="Hypertension" style="shape=partialRectangle;overflow=hidden;connectable=0;fillColor=#F3F3F3;top=0;left=0;bottom=0;right=0;align=left;spacingLeft=6;" vertex="1" parent="FiXy-7Y5C_PRkbZDDKWc-37">
          <mxGeometry x="30" width="130" height="30" as="geometry">
            <mxRectangle width="130" height="30" as="alternateBounds" />
          </mxGeometry>
        </mxCell>
        <mxCell id="FiXy-7Y5C_PRkbZDDKWc-85" value="INT" style="shape=partialRectangle;overflow=hidden;connectable=0;fillColor=#F3F3F3;top=0;left=0;bottom=0;right=0;align=right;spacingLeft=6;" vertex="1" parent="FiXy-7Y5C_PRkbZDDKWc-37">
          <mxGeometry x="160" width="100" height="30" as="geometry">
            <mxRectangle width="100" height="30" as="alternateBounds" />
          </mxGeometry>
        </mxCell>
        <mxCell id="FiXy-7Y5C_PRkbZDDKWc-40" style="shape=partialRectangle;collapsible=0;dropTarget=0;pointerEvents=0;fillColor=none;points=[[0,0.5],[1,0.5]];portConstraint=eastwest;top=0;left=0;right=0;bottom=0;" vertex="1" parent="C-vyLk0tnHw3VtMMgP7b-13">
          <mxGeometry y="180" width="260" height="30" as="geometry" />
        </mxCell>
        <mxCell id="FiXy-7Y5C_PRkbZDDKWc-41" style="shape=partialRectangle;overflow=hidden;connectable=0;fillColor=#F3F3F3;top=0;left=0;bottom=0;right=0;" vertex="1" parent="FiXy-7Y5C_PRkbZDDKWc-40">
          <mxGeometry width="30" height="30" as="geometry">
            <mxRectangle width="30" height="30" as="alternateBounds" />
          </mxGeometry>
        </mxCell>
        <mxCell id="FiXy-7Y5C_PRkbZDDKWc-42" value="Heart_Disease" style="shape=partialRectangle;overflow=hidden;connectable=0;fillColor=#F3F3F3;top=0;left=0;bottom=0;right=0;align=left;spacingLeft=6;" vertex="1" parent="FiXy-7Y5C_PRkbZDDKWc-40">
          <mxGeometry x="30" width="130" height="30" as="geometry">
            <mxRectangle width="130" height="30" as="alternateBounds" />
          </mxGeometry>
        </mxCell>
        <mxCell id="FiXy-7Y5C_PRkbZDDKWc-86" value="VARCHAR(4)" style="shape=partialRectangle;overflow=hidden;connectable=0;fillColor=#F3F3F3;top=0;left=0;bottom=0;right=0;align=right;spacingLeft=6;" vertex="1" parent="FiXy-7Y5C_PRkbZDDKWc-40">
          <mxGeometry x="160" width="100" height="30" as="geometry">
            <mxRectangle width="100" height="30" as="alternateBounds" />
          </mxGeometry>
        </mxCell>
        <mxCell id="FiXy-7Y5C_PRkbZDDKWc-43" style="shape=partialRectangle;collapsible=0;dropTarget=0;pointerEvents=0;fillColor=none;points=[[0,0.5],[1,0.5]];portConstraint=eastwest;top=0;left=0;right=0;bottom=0;" vertex="1" parent="C-vyLk0tnHw3VtMMgP7b-13">
          <mxGeometry y="210" width="260" height="30" as="geometry" />
        </mxCell>
        <mxCell id="FiXy-7Y5C_PRkbZDDKWc-44" style="shape=partialRectangle;overflow=hidden;connectable=0;fillColor=#F3F3F3;top=0;left=0;bottom=0;right=0;" vertex="1" parent="FiXy-7Y5C_PRkbZDDKWc-43">
          <mxGeometry width="30" height="30" as="geometry">
            <mxRectangle width="30" height="30" as="alternateBounds" />
          </mxGeometry>
        </mxCell>
        <mxCell id="FiXy-7Y5C_PRkbZDDKWc-45" value="Avg_Glucose_Level" style="shape=partialRectangle;overflow=hidden;connectable=0;fillColor=#F3F3F3;top=0;left=0;bottom=0;right=0;align=left;spacingLeft=6;" vertex="1" parent="FiXy-7Y5C_PRkbZDDKWc-43">
          <mxGeometry x="30" width="130" height="30" as="geometry">
            <mxRectangle width="130" height="30" as="alternateBounds" />
          </mxGeometry>
        </mxCell>
        <mxCell id="FiXy-7Y5C_PRkbZDDKWc-87" value="FLOAT" style="shape=partialRectangle;overflow=hidden;connectable=0;fillColor=#F3F3F3;top=0;left=0;bottom=0;right=0;align=right;spacingLeft=6;" vertex="1" parent="FiXy-7Y5C_PRkbZDDKWc-43">
          <mxGeometry x="160" width="100" height="30" as="geometry">
            <mxRectangle width="100" height="30" as="alternateBounds" />
          </mxGeometry>
        </mxCell>
        <mxCell id="FiXy-7Y5C_PRkbZDDKWc-46" style="shape=partialRectangle;collapsible=0;dropTarget=0;pointerEvents=0;fillColor=none;points=[[0,0.5],[1,0.5]];portConstraint=eastwest;top=0;left=0;right=0;bottom=0;" vertex="1" parent="C-vyLk0tnHw3VtMMgP7b-13">
          <mxGeometry y="240" width="260" height="30" as="geometry" />
        </mxCell>
        <mxCell id="FiXy-7Y5C_PRkbZDDKWc-47" style="shape=partialRectangle;overflow=hidden;connectable=0;fillColor=#F3F3F3;top=0;left=0;bottom=0;right=0;" vertex="1" parent="FiXy-7Y5C_PRkbZDDKWc-46">
          <mxGeometry width="30" height="30" as="geometry">
            <mxRectangle width="30" height="30" as="alternateBounds" />
          </mxGeometry>
        </mxCell>
        <mxCell id="FiXy-7Y5C_PRkbZDDKWc-48" value="BMI" style="shape=partialRectangle;overflow=hidden;connectable=0;fillColor=#F3F3F3;top=0;left=0;bottom=0;right=0;align=left;spacingLeft=6;" vertex="1" parent="FiXy-7Y5C_PRkbZDDKWc-46">
          <mxGeometry x="30" width="130" height="30" as="geometry">
            <mxRectangle width="130" height="30" as="alternateBounds" />
          </mxGeometry>
        </mxCell>
        <mxCell id="FiXy-7Y5C_PRkbZDDKWc-88" value="FLOAT" style="shape=partialRectangle;overflow=hidden;connectable=0;fillColor=#F3F3F3;top=0;left=0;bottom=0;right=0;align=right;spacingLeft=6;" vertex="1" parent="FiXy-7Y5C_PRkbZDDKWc-46">
          <mxGeometry x="160" width="100" height="30" as="geometry">
            <mxRectangle width="100" height="30" as="alternateBounds" />
          </mxGeometry>
        </mxCell>
        <mxCell id="FiXy-7Y5C_PRkbZDDKWc-49" style="shape=partialRectangle;collapsible=0;dropTarget=0;pointerEvents=0;fillColor=none;points=[[0,0.5],[1,0.5]];portConstraint=eastwest;top=0;left=0;right=0;bottom=0;" vertex="1" parent="C-vyLk0tnHw3VtMMgP7b-13">
          <mxGeometry y="270" width="260" height="30" as="geometry" />
        </mxCell>
        <mxCell id="FiXy-7Y5C_PRkbZDDKWc-50" style="shape=partialRectangle;overflow=hidden;connectable=0;fillColor=#F3F3F3;top=0;left=0;bottom=0;right=0;" vertex="1" parent="FiXy-7Y5C_PRkbZDDKWc-49">
          <mxGeometry width="30" height="30" as="geometry">
            <mxRectangle width="30" height="30" as="alternateBounds" />
          </mxGeometry>
        </mxCell>
        <mxCell id="FiXy-7Y5C_PRkbZDDKWc-51" value="Smoker" style="shape=partialRectangle;overflow=hidden;connectable=0;fillColor=#F3F3F3;top=0;left=0;bottom=0;right=0;align=left;spacingLeft=6;" vertex="1" parent="FiXy-7Y5C_PRkbZDDKWc-49">
          <mxGeometry x="30" width="130" height="30" as="geometry">
            <mxRectangle width="130" height="30" as="alternateBounds" />
          </mxGeometry>
        </mxCell>
        <mxCell id="FiXy-7Y5C_PRkbZDDKWc-89" value="VARCHAR(20)" style="shape=partialRectangle;overflow=hidden;connectable=0;fillColor=#F3F3F3;top=0;left=0;bottom=0;right=0;align=right;spacingLeft=6;" vertex="1" parent="FiXy-7Y5C_PRkbZDDKWc-49">
          <mxGeometry x="160" width="100" height="30" as="geometry">
            <mxRectangle width="100" height="30" as="alternateBounds" />
          </mxGeometry>
        </mxCell>
        <mxCell id="FiXy-7Y5C_PRkbZDDKWc-52" style="shape=partialRectangle;collapsible=0;dropTarget=0;pointerEvents=0;fillColor=none;points=[[0,0.5],[1,0.5]];portConstraint=eastwest;top=0;left=0;right=0;bottom=0;" vertex="1" parent="C-vyLk0tnHw3VtMMgP7b-13">
          <mxGeometry y="300" width="260" height="30" as="geometry" />
        </mxCell>
        <mxCell id="FiXy-7Y5C_PRkbZDDKWc-53" style="shape=partialRectangle;overflow=hidden;connectable=0;fillColor=#F3F3F3;top=0;left=0;bottom=0;right=0;" vertex="1" parent="FiXy-7Y5C_PRkbZDDKWc-52">
          <mxGeometry width="30" height="30" as="geometry">
            <mxRectangle width="30" height="30" as="alternateBounds" />
          </mxGeometry>
        </mxCell>
        <mxCell id="FiXy-7Y5C_PRkbZDDKWc-54" value="Stroke" style="shape=partialRectangle;overflow=hidden;connectable=0;fillColor=#F3F3F3;top=0;left=0;bottom=0;right=0;align=left;spacingLeft=6;" vertex="1" parent="FiXy-7Y5C_PRkbZDDKWc-52">
          <mxGeometry x="30" width="130" height="30" as="geometry">
            <mxRectangle width="130" height="30" as="alternateBounds" />
          </mxGeometry>
        </mxCell>
        <mxCell id="FiXy-7Y5C_PRkbZDDKWc-90" value="INT" style="shape=partialRectangle;overflow=hidden;connectable=0;fillColor=#F3F3F3;top=0;left=0;bottom=0;right=0;align=right;spacingLeft=6;" vertex="1" parent="FiXy-7Y5C_PRkbZDDKWc-52">
          <mxGeometry x="160" width="100" height="30" as="geometry">
            <mxRectangle width="100" height="30" as="alternateBounds" />
          </mxGeometry>
        </mxCell>
        <mxCell id="C-vyLk0tnHw3VtMMgP7b-23" value="Medical" style="shape=table;startSize=30;container=1;collapsible=1;childLayout=tableLayout;fixedRows=1;rowLines=0;fontStyle=1;align=center;resizeLast=1;fillColor=#FF5B5B;strokeColor=#FF5B5B;fontFamily=Cabin;fontSource=https%3A%2F%2Ffonts.googleapis.com%2Fcss%3Ffamily%3DCabin;fontSize=19;fontColor=#434343;rounded=1;shadow=1;sketch=0;strokeWidth=1;perimeterSpacing=0;swimlaneFillColor=default;gradientColor=none;labelBackgroundColor=none;" parent="1" vertex="1">
          <mxGeometry x="30" y="-50" width="270" height="340" as="geometry" />
        </mxCell>
        <mxCell id="C-vyLk0tnHw3VtMMgP7b-24" value="" style="shape=partialRectangle;collapsible=0;dropTarget=0;pointerEvents=0;fillColor=none;points=[[0,0.5],[1,0.5]];portConstraint=eastwest;top=0;left=0;right=0;bottom=1;" parent="C-vyLk0tnHw3VtMMgP7b-23" vertex="1">
          <mxGeometry y="30" width="270" height="30" as="geometry" />
        </mxCell>
        <mxCell id="C-vyLk0tnHw3VtMMgP7b-25" value="PK" style="shape=partialRectangle;overflow=hidden;connectable=0;fillColor=#F3F3F3;top=0;left=0;bottom=0;right=0;fontStyle=1;" parent="C-vyLk0tnHw3VtMMgP7b-24" vertex="1">
          <mxGeometry width="30" height="30" as="geometry">
            <mxRectangle width="30" height="30" as="alternateBounds" />
          </mxGeometry>
        </mxCell>
        <mxCell id="C-vyLk0tnHw3VtMMgP7b-26" value="ID" style="shape=partialRectangle;overflow=hidden;connectable=0;fillColor=#F3F3F3;top=0;left=0;bottom=0;right=0;align=left;spacingLeft=6;fontStyle=0;" parent="C-vyLk0tnHw3VtMMgP7b-24" vertex="1">
          <mxGeometry x="30" width="140" height="30" as="geometry">
            <mxRectangle width="140" height="30" as="alternateBounds" />
          </mxGeometry>
        </mxCell>
        <mxCell id="FiXy-7Y5C_PRkbZDDKWc-71" value="INT" style="shape=partialRectangle;overflow=hidden;connectable=0;fillColor=#F3F3F3;top=0;left=0;bottom=0;right=0;align=right;spacingLeft=6;fontStyle=0;" vertex="1" parent="C-vyLk0tnHw3VtMMgP7b-24">
          <mxGeometry x="170" width="100" height="30" as="geometry">
            <mxRectangle width="100" height="30" as="alternateBounds" />
          </mxGeometry>
        </mxCell>
        <mxCell id="C-vyLk0tnHw3VtMMgP7b-27" value="" style="shape=partialRectangle;collapsible=0;dropTarget=0;pointerEvents=0;fillColor=none;points=[[0,0.5],[1,0.5]];portConstraint=eastwest;top=0;left=0;right=0;bottom=0;" parent="C-vyLk0tnHw3VtMMgP7b-23" vertex="1">
          <mxGeometry y="60" width="270" height="30" as="geometry" />
        </mxCell>
        <mxCell id="C-vyLk0tnHw3VtMMgP7b-28" value="" style="shape=partialRectangle;overflow=hidden;connectable=0;fillColor=#F3F3F3;top=0;left=0;bottom=0;right=0;" parent="C-vyLk0tnHw3VtMMgP7b-27" vertex="1">
          <mxGeometry width="30" height="30" as="geometry">
            <mxRectangle width="30" height="30" as="alternateBounds" />
          </mxGeometry>
        </mxCell>
        <mxCell id="C-vyLk0tnHw3VtMMgP7b-29" value="Index" style="shape=partialRectangle;overflow=hidden;connectable=0;fillColor=#F3F3F3;top=0;left=0;bottom=0;right=0;align=left;spacingLeft=6;" parent="C-vyLk0tnHw3VtMMgP7b-27" vertex="1">
          <mxGeometry x="30" width="140" height="30" as="geometry">
            <mxRectangle width="140" height="30" as="alternateBounds" />
          </mxGeometry>
        </mxCell>
        <mxCell id="FiXy-7Y5C_PRkbZDDKWc-72" value="INT" style="shape=partialRectangle;overflow=hidden;connectable=0;fillColor=#F3F3F3;top=0;left=0;bottom=0;right=0;align=right;spacingLeft=6;" vertex="1" parent="C-vyLk0tnHw3VtMMgP7b-27">
          <mxGeometry x="170" width="100" height="30" as="geometry">
            <mxRectangle width="100" height="30" as="alternateBounds" />
          </mxGeometry>
        </mxCell>
        <mxCell id="FiXy-7Y5C_PRkbZDDKWc-10" style="shape=partialRectangle;collapsible=0;dropTarget=0;pointerEvents=0;fillColor=none;points=[[0,0.5],[1,0.5]];portConstraint=eastwest;top=0;left=0;right=0;bottom=0;" vertex="1" parent="C-vyLk0tnHw3VtMMgP7b-23">
          <mxGeometry y="90" width="270" height="30" as="geometry" />
        </mxCell>
        <mxCell id="FiXy-7Y5C_PRkbZDDKWc-11" style="shape=partialRectangle;overflow=hidden;connectable=0;fillColor=#F3F3F3;top=0;left=0;bottom=0;right=0;" vertex="1" parent="FiXy-7Y5C_PRkbZDDKWc-10">
          <mxGeometry width="30" height="30" as="geometry">
            <mxRectangle width="30" height="30" as="alternateBounds" />
          </mxGeometry>
        </mxCell>
        <mxCell id="FiXy-7Y5C_PRkbZDDKWc-12" value="Gender" style="shape=partialRectangle;overflow=hidden;connectable=0;fillColor=#F3F3F3;top=0;left=0;bottom=0;right=0;align=left;spacingLeft=6;" vertex="1" parent="FiXy-7Y5C_PRkbZDDKWc-10">
          <mxGeometry x="30" width="140" height="30" as="geometry">
            <mxRectangle width="140" height="30" as="alternateBounds" />
          </mxGeometry>
        </mxCell>
        <mxCell id="FiXy-7Y5C_PRkbZDDKWc-73" value="VARCHAR(6)" style="shape=partialRectangle;overflow=hidden;connectable=0;fillColor=#F3F3F3;top=0;left=0;bottom=0;right=0;align=right;spacingLeft=6;" vertex="1" parent="FiXy-7Y5C_PRkbZDDKWc-10">
          <mxGeometry x="170" width="100" height="30" as="geometry">
            <mxRectangle width="100" height="30" as="alternateBounds" />
          </mxGeometry>
        </mxCell>
        <mxCell id="FiXy-7Y5C_PRkbZDDKWc-13" style="shape=partialRectangle;collapsible=0;dropTarget=0;pointerEvents=0;fillColor=none;points=[[0,0.5],[1,0.5]];portConstraint=eastwest;top=0;left=0;right=0;bottom=0;" vertex="1" parent="C-vyLk0tnHw3VtMMgP7b-23">
          <mxGeometry y="120" width="270" height="30" as="geometry" />
        </mxCell>
        <mxCell id="FiXy-7Y5C_PRkbZDDKWc-14" style="shape=partialRectangle;overflow=hidden;connectable=0;fillColor=#F3F3F3;top=0;left=0;bottom=0;right=0;" vertex="1" parent="FiXy-7Y5C_PRkbZDDKWc-13">
          <mxGeometry width="30" height="30" as="geometry">
            <mxRectangle width="30" height="30" as="alternateBounds" />
          </mxGeometry>
        </mxCell>
        <mxCell id="FiXy-7Y5C_PRkbZDDKWc-15" value="Age" style="shape=partialRectangle;overflow=hidden;connectable=0;fillColor=#F3F3F3;top=0;left=0;bottom=0;right=0;align=left;spacingLeft=6;" vertex="1" parent="FiXy-7Y5C_PRkbZDDKWc-13">
          <mxGeometry x="30" width="140" height="30" as="geometry">
            <mxRectangle width="140" height="30" as="alternateBounds" />
          </mxGeometry>
        </mxCell>
        <mxCell id="FiXy-7Y5C_PRkbZDDKWc-74" value="FLOAT" style="shape=partialRectangle;overflow=hidden;connectable=0;fillColor=#F3F3F3;top=0;left=0;bottom=0;right=0;align=right;spacingLeft=6;" vertex="1" parent="FiXy-7Y5C_PRkbZDDKWc-13">
          <mxGeometry x="170" width="100" height="30" as="geometry">
            <mxRectangle width="100" height="30" as="alternateBounds" />
          </mxGeometry>
        </mxCell>
        <mxCell id="FiXy-7Y5C_PRkbZDDKWc-31" style="shape=partialRectangle;collapsible=0;dropTarget=0;pointerEvents=0;fillColor=none;points=[[0,0.5],[1,0.5]];portConstraint=eastwest;top=0;left=0;right=0;bottom=0;" vertex="1" parent="C-vyLk0tnHw3VtMMgP7b-23">
          <mxGeometry y="150" width="270" height="30" as="geometry" />
        </mxCell>
        <mxCell id="FiXy-7Y5C_PRkbZDDKWc-32" style="shape=partialRectangle;overflow=hidden;connectable=0;fillColor=#F3F3F3;top=0;left=0;bottom=0;right=0;" vertex="1" parent="FiXy-7Y5C_PRkbZDDKWc-31">
          <mxGeometry width="30" height="30" as="geometry">
            <mxRectangle width="30" height="30" as="alternateBounds" />
          </mxGeometry>
        </mxCell>
        <mxCell id="FiXy-7Y5C_PRkbZDDKWc-33" value="Hypertension" style="shape=partialRectangle;overflow=hidden;connectable=0;fillColor=#F3F3F3;top=0;left=0;bottom=0;right=0;align=left;spacingLeft=6;" vertex="1" parent="FiXy-7Y5C_PRkbZDDKWc-31">
          <mxGeometry x="30" width="140" height="30" as="geometry">
            <mxRectangle width="140" height="30" as="alternateBounds" />
          </mxGeometry>
        </mxCell>
        <mxCell id="FiXy-7Y5C_PRkbZDDKWc-75" value="INT" style="shape=partialRectangle;overflow=hidden;connectable=0;fillColor=#F3F3F3;top=0;left=0;bottom=0;right=0;align=right;spacingLeft=6;" vertex="1" parent="FiXy-7Y5C_PRkbZDDKWc-31">
          <mxGeometry x="170" width="100" height="30" as="geometry">
            <mxRectangle width="100" height="30" as="alternateBounds" />
          </mxGeometry>
        </mxCell>
        <mxCell id="FiXy-7Y5C_PRkbZDDKWc-28" style="shape=partialRectangle;collapsible=0;dropTarget=0;pointerEvents=0;fillColor=none;points=[[0,0.5],[1,0.5]];portConstraint=eastwest;top=0;left=0;right=0;bottom=0;" vertex="1" parent="C-vyLk0tnHw3VtMMgP7b-23">
          <mxGeometry y="180" width="270" height="30" as="geometry" />
        </mxCell>
        <mxCell id="FiXy-7Y5C_PRkbZDDKWc-29" style="shape=partialRectangle;overflow=hidden;connectable=0;fillColor=#F3F3F3;top=0;left=0;bottom=0;right=0;" vertex="1" parent="FiXy-7Y5C_PRkbZDDKWc-28">
          <mxGeometry width="30" height="30" as="geometry">
            <mxRectangle width="30" height="30" as="alternateBounds" />
          </mxGeometry>
        </mxCell>
        <mxCell id="FiXy-7Y5C_PRkbZDDKWc-30" value="Heart_Disease" style="shape=partialRectangle;overflow=hidden;connectable=0;fillColor=#F3F3F3;top=0;left=0;bottom=0;right=0;align=left;spacingLeft=6;" vertex="1" parent="FiXy-7Y5C_PRkbZDDKWc-28">
          <mxGeometry x="30" width="140" height="30" as="geometry">
            <mxRectangle width="140" height="30" as="alternateBounds" />
          </mxGeometry>
        </mxCell>
        <mxCell id="FiXy-7Y5C_PRkbZDDKWc-76" value="VARCHAR(4)" style="shape=partialRectangle;overflow=hidden;connectable=0;fillColor=#F3F3F3;top=0;left=0;bottom=0;right=0;align=right;spacingLeft=6;" vertex="1" parent="FiXy-7Y5C_PRkbZDDKWc-28">
          <mxGeometry x="170" width="100" height="30" as="geometry">
            <mxRectangle width="100" height="30" as="alternateBounds" />
          </mxGeometry>
        </mxCell>
        <mxCell id="FiXy-7Y5C_PRkbZDDKWc-25" style="shape=partialRectangle;collapsible=0;dropTarget=0;pointerEvents=0;fillColor=none;points=[[0,0.5],[1,0.5]];portConstraint=eastwest;top=0;left=0;right=0;bottom=0;" vertex="1" parent="C-vyLk0tnHw3VtMMgP7b-23">
          <mxGeometry y="210" width="270" height="30" as="geometry" />
        </mxCell>
        <mxCell id="FiXy-7Y5C_PRkbZDDKWc-26" style="shape=partialRectangle;overflow=hidden;connectable=0;fillColor=#F3F3F3;top=0;left=0;bottom=0;right=0;" vertex="1" parent="FiXy-7Y5C_PRkbZDDKWc-25">
          <mxGeometry width="30" height="30" as="geometry">
            <mxRectangle width="30" height="30" as="alternateBounds" />
          </mxGeometry>
        </mxCell>
        <mxCell id="FiXy-7Y5C_PRkbZDDKWc-27" value="Avg_Glucose_Level" style="shape=partialRectangle;overflow=hidden;connectable=0;fillColor=#F3F3F3;top=0;left=0;bottom=0;right=0;align=left;spacingLeft=6;" vertex="1" parent="FiXy-7Y5C_PRkbZDDKWc-25">
          <mxGeometry x="30" width="140" height="30" as="geometry">
            <mxRectangle width="140" height="30" as="alternateBounds" />
          </mxGeometry>
        </mxCell>
        <mxCell id="FiXy-7Y5C_PRkbZDDKWc-77" value="FLOAT" style="shape=partialRectangle;overflow=hidden;connectable=0;fillColor=#F3F3F3;top=0;left=0;bottom=0;right=0;align=right;spacingLeft=6;" vertex="1" parent="FiXy-7Y5C_PRkbZDDKWc-25">
          <mxGeometry x="170" width="100" height="30" as="geometry">
            <mxRectangle width="100" height="30" as="alternateBounds" />
          </mxGeometry>
        </mxCell>
        <mxCell id="FiXy-7Y5C_PRkbZDDKWc-22" style="shape=partialRectangle;collapsible=0;dropTarget=0;pointerEvents=0;fillColor=none;points=[[0,0.5],[1,0.5]];portConstraint=eastwest;top=0;left=0;right=0;bottom=0;" vertex="1" parent="C-vyLk0tnHw3VtMMgP7b-23">
          <mxGeometry y="240" width="270" height="30" as="geometry" />
        </mxCell>
        <mxCell id="FiXy-7Y5C_PRkbZDDKWc-23" style="shape=partialRectangle;overflow=hidden;connectable=0;fillColor=#F3F3F3;top=0;left=0;bottom=0;right=0;" vertex="1" parent="FiXy-7Y5C_PRkbZDDKWc-22">
          <mxGeometry width="30" height="30" as="geometry">
            <mxRectangle width="30" height="30" as="alternateBounds" />
          </mxGeometry>
        </mxCell>
        <mxCell id="FiXy-7Y5C_PRkbZDDKWc-24" value="BMI" style="shape=partialRectangle;overflow=hidden;connectable=0;fillColor=#F3F3F3;top=0;left=0;bottom=0;right=0;align=left;spacingLeft=6;" vertex="1" parent="FiXy-7Y5C_PRkbZDDKWc-22">
          <mxGeometry x="30" width="140" height="30" as="geometry">
            <mxRectangle width="140" height="30" as="alternateBounds" />
          </mxGeometry>
        </mxCell>
        <mxCell id="FiXy-7Y5C_PRkbZDDKWc-78" value="FLOAT" style="shape=partialRectangle;overflow=hidden;connectable=0;fillColor=#F3F3F3;top=0;left=0;bottom=0;right=0;align=right;spacingLeft=6;" vertex="1" parent="FiXy-7Y5C_PRkbZDDKWc-22">
          <mxGeometry x="170" width="100" height="30" as="geometry">
            <mxRectangle width="100" height="30" as="alternateBounds" />
          </mxGeometry>
        </mxCell>
        <mxCell id="FiXy-7Y5C_PRkbZDDKWc-19" style="shape=partialRectangle;collapsible=0;dropTarget=0;pointerEvents=0;fillColor=none;points=[[0,0.5],[1,0.5]];portConstraint=eastwest;top=0;left=0;right=0;bottom=0;" vertex="1" parent="C-vyLk0tnHw3VtMMgP7b-23">
          <mxGeometry y="270" width="270" height="30" as="geometry" />
        </mxCell>
        <mxCell id="FiXy-7Y5C_PRkbZDDKWc-20" style="shape=partialRectangle;overflow=hidden;connectable=0;fillColor=#F3F3F3;top=0;left=0;bottom=0;right=0;" vertex="1" parent="FiXy-7Y5C_PRkbZDDKWc-19">
          <mxGeometry width="30" height="30" as="geometry">
            <mxRectangle width="30" height="30" as="alternateBounds" />
          </mxGeometry>
        </mxCell>
        <mxCell id="FiXy-7Y5C_PRkbZDDKWc-21" value="Smoker" style="shape=partialRectangle;overflow=hidden;connectable=0;fillColor=#F3F3F3;top=0;left=0;bottom=0;right=0;align=left;spacingLeft=6;" vertex="1" parent="FiXy-7Y5C_PRkbZDDKWc-19">
          <mxGeometry x="30" width="140" height="30" as="geometry">
            <mxRectangle width="140" height="30" as="alternateBounds" />
          </mxGeometry>
        </mxCell>
        <mxCell id="FiXy-7Y5C_PRkbZDDKWc-79" value="VARCHAR(20)" style="shape=partialRectangle;overflow=hidden;connectable=0;fillColor=#F3F3F3;top=0;left=0;bottom=0;right=0;align=right;spacingLeft=6;" vertex="1" parent="FiXy-7Y5C_PRkbZDDKWc-19">
          <mxGeometry x="170" width="100" height="30" as="geometry">
            <mxRectangle width="100" height="30" as="alternateBounds" />
          </mxGeometry>
        </mxCell>
        <mxCell id="FiXy-7Y5C_PRkbZDDKWc-16" style="shape=partialRectangle;collapsible=0;dropTarget=0;pointerEvents=0;fillColor=none;points=[[0,0.5],[1,0.5]];portConstraint=eastwest;top=0;left=0;right=0;bottom=0;" vertex="1" parent="C-vyLk0tnHw3VtMMgP7b-23">
          <mxGeometry y="300" width="270" height="30" as="geometry" />
        </mxCell>
        <mxCell id="FiXy-7Y5C_PRkbZDDKWc-17" style="shape=partialRectangle;overflow=hidden;connectable=0;fillColor=#F3F3F3;top=0;left=0;bottom=0;right=0;" vertex="1" parent="FiXy-7Y5C_PRkbZDDKWc-16">
          <mxGeometry width="30" height="30" as="geometry">
            <mxRectangle width="30" height="30" as="alternateBounds" />
          </mxGeometry>
        </mxCell>
        <mxCell id="FiXy-7Y5C_PRkbZDDKWc-18" value="Stroke" style="shape=partialRectangle;overflow=hidden;connectable=0;fillColor=#F3F3F3;top=0;left=0;bottom=0;right=0;align=left;spacingLeft=6;" vertex="1" parent="FiXy-7Y5C_PRkbZDDKWc-16">
          <mxGeometry x="30" width="140" height="30" as="geometry">
            <mxRectangle width="140" height="30" as="alternateBounds" />
          </mxGeometry>
        </mxCell>
        <mxCell id="FiXy-7Y5C_PRkbZDDKWc-80" value="INT" style="shape=partialRectangle;overflow=hidden;connectable=0;fillColor=#F3F3F3;top=0;left=0;bottom=0;right=0;align=right;spacingLeft=6;" vertex="1" parent="FiXy-7Y5C_PRkbZDDKWc-16">
          <mxGeometry x="170" width="100" height="30" as="geometry">
            <mxRectangle width="100" height="30" as="alternateBounds" />
          </mxGeometry>
        </mxCell>
        <mxCell id="FiXy-7Y5C_PRkbZDDKWc-97" value="" style="endArrow=ERmany;html=1;rounded=0;fontFamily=Cabin;fontSource=https%3A%2F%2Ffonts.googleapis.com%2Fcss%3Ffamily%3DCabin;fontSize=19;fontColor=#434343;exitX=1;exitY=0.5;exitDx=0;exitDy=0;edgeStyle=orthogonalEdgeStyle;entryX=1;entryY=0.5;entryDx=0;entryDy=0;curved=1;endFill=0;" edge="1" parent="1" source="C-vyLk0tnHw3VtMMgP7b-3" target="C-vyLk0tnHw3VtMMgP7b-14">
          <mxGeometry width="50" height="50" relative="1" as="geometry">
            <mxPoint x="700" y="90" as="sourcePoint" />
            <mxPoint x="750" y="40" as="targetPoint" />
          </mxGeometry>
        </mxCell>
        <mxCell id="FiXy-7Y5C_PRkbZDDKWc-98" value="" style="endArrow=ERmany;html=1;rounded=0;fontFamily=Cabin;fontSource=https%3A%2F%2Ffonts.googleapis.com%2Fcss%3Ffamily%3DCabin;fontSize=19;fontColor=#434343;exitX=0;exitY=0.5;exitDx=0;exitDy=0;edgeStyle=orthogonalEdgeStyle;curved=1;endFill=0;" edge="1" parent="1" source="C-vyLk0tnHw3VtMMgP7b-3">
          <mxGeometry width="50" height="50" relative="1" as="geometry">
            <mxPoint x="130" y="-150" as="sourcePoint" />
            <mxPoint x="30" y="10" as="targetPoint" />
            <Array as="points">
              <mxPoint x="20" y="-235" />
              <mxPoint x="20" y="10" />
            </Array>
          </mxGeometry>
        </mxCell>
        <mxCell id="FiXy-7Y5C_PRkbZDDKWc-99" value="" style="endArrow=ERmany;html=1;rounded=0;fontFamily=Cabin;fontSource=https%3A%2F%2Ffonts.googleapis.com%2Fcss%3Ffamily%3DCabin;fontSize=19;fontColor=#434343;exitX=1;exitY=0.5;exitDx=0;exitDy=0;edgeStyle=orthogonalEdgeStyle;entryX=0;entryY=0.5;entryDx=0;entryDy=0;curved=1;endFill=0;" edge="1" parent="1" source="C-vyLk0tnHw3VtMMgP7b-24" target="C-vyLk0tnHw3VtMMgP7b-14">
          <mxGeometry width="50" height="50" relative="1" as="geometry">
            <mxPoint x="590" y="-225" as="sourcePoint" />
            <mxPoint x="870" y="15" as="targetPoint" />
            <Array as="points">
              <mxPoint x="300" y="40" />
              <mxPoint x="600" y="40" />
            </Array>
          </mxGeometry>
        </mxCell>
      </root>
    </mxGraphModel>
  </diagram>
</mxfile>
